<svg width="111" height="123" viewBox="0 0 111 123" fill="none" xmlns="http://www.w3.org/2000/svg">
<g clip-path="url(#clip0_6_2)">
<path d="M16.78 28.81H23.46C22.9639 30.5412 22.8766 32.3639 23.205 34.1346C23.5334 35.9053 24.2685 37.5755 25.3524 39.0137C26.4364 40.4519 27.8394 41.6186 29.4511 42.4221C31.0628 43.2256 32.8391 43.6438 34.64 43.6438C36.4409 43.6438 38.2172 43.2256 39.8289 42.4221C41.4406 41.6186 42.8436 40.4519 43.9276 39.0137C45.0115 37.5755 45.7466 35.9053 46.075 34.1346C46.4034 32.3639 46.3161 30.5412 45.82 28.81H63.6C63.1006 30.5433 63.0109 32.369 63.3379 34.1429C63.6649 35.9169 64.3998 37.5906 65.4844 39.0319C66.5691 40.4731 67.9739 41.6426 69.588 42.448C71.202 43.2534 72.9812 43.6726 74.785 43.6726C76.5888 43.6726 78.368 43.2534 79.982 42.448C81.5961 41.6426 83.0009 40.4731 84.0856 39.0319C85.1702 37.5906 85.9051 35.9169 86.2321 34.1429C86.5591 32.369 86.4694 30.5433 85.97 28.81H94.17C96.9052 28.8158 99.5293 29.8927 101.48 31.81C103.257 33.6107 104.343 35.9789 104.55 38.5V38.5L110.89 111.71C110.9 111.833 110.9 111.957 110.89 112.08C110.89 112.28 110.89 112.43 110.89 112.51C110.868 115.122 109.849 117.626 108.04 119.51C106.24 121.407 103.798 122.566 101.19 122.76H101.01H100.46H10.43H9.86H9.69C7.08308 122.562 4.64229 121.404 2.84 119.51C1.03668 117.623 0.0209614 115.12 0 112.51C0 112.42 0 112.23 0 111.97V111.71L6.39 38.53V38.22C6.53404 37.1043 6.85118 36.0179 7.33 35C7.84981 33.8451 8.57106 32.792 9.46 31.89C9.59 31.76 9.73 31.64 9.86 31.53C10.7456 30.7396 11.7603 30.107 12.86 29.66V29.66C14.1093 29.1425 15.4477 28.8742 16.8 28.87L16.78 28.81Z" fill="#333333"/>
<path d="M16.78 33.74H23.14C23.5551 36.4928 24.9439 39.0055 27.0541 40.8214C29.1644 42.6373 31.856 43.6359 34.64 43.6359C37.424 43.6359 40.1156 42.6373 42.2258 40.8214C44.3361 39.0055 45.7249 36.4928 46.14 33.74H63.28C63.6951 36.4928 65.0839 39.0055 67.1942 40.8214C69.3044 42.6373 71.996 43.6359 74.78 43.6359C77.564 43.6359 80.2556 42.6373 82.3658 40.8214C84.4761 39.0055 85.8649 36.4928 86.28 33.74H94.16C94.8745 33.7368 95.5824 33.8767 96.2419 34.1515C96.9014 34.4263 97.4992 34.8304 98 35.34C98.9758 36.3184 99.5593 37.6205 99.64 39L106 112.17C106 112.34 106 112.47 106 112.55C105.973 113.923 105.434 115.236 104.489 116.231C103.543 117.227 102.26 117.833 100.89 117.93H100.51H10.43H10.04C8.6679 117.835 7.38145 117.228 6.43518 116.23C5.48892 115.232 4.95176 113.915 4.92999 112.54C4.92999 112.46 4.92999 112.34 4.92999 112.16L11.3 39C11.399 37.61 12.0038 36.3044 13 35.33C14.0166 34.3151 15.3935 33.7435 16.83 33.74H16.78Z" fill="#1E90FF"/>
<path d="M36.16 26.48V23.26C36.1758 18.3539 38.1304 13.6529 41.5977 10.1818C45.065 6.71076 49.7639 4.75109 54.67 4.73V4.73C59.5796 4.74052 64.2857 6.69278 67.7611 10.1607C71.2365 13.6285 73.1989 18.3304 73.22 23.24V23.24V26.59C72.231 26.9122 71.3501 27.5012 70.6744 28.2921C69.9987 29.0829 69.5545 30.0449 69.3907 31.0722C69.2268 32.0994 69.3497 33.1519 69.7458 34.1137C70.1419 35.0755 70.7959 35.9093 71.6356 36.5232C72.4753 37.1371 73.4682 37.5073 74.5049 37.5929C75.5415 37.6786 76.5817 37.4764 77.5108 37.0086C78.4399 36.5409 79.2218 35.8257 79.7704 34.942C80.319 34.0582 80.613 33.0402 80.62 32C80.6361 31.0375 80.4034 30.0871 79.9444 29.2409C79.4854 28.3947 78.8156 27.6813 78 27.17V23.24C77.9841 17.0726 75.5237 11.1631 71.1579 6.80672C66.7922 2.45037 60.8774 0.00262652 54.71 0V0C48.5426 0.00793181 42.6299 2.46076 38.2679 6.82085C33.9059 11.1809 31.4506 17.0926 31.44 23.26V23.26V27.46C30.4188 28.237 29.6925 29.3386 29.3807 30.5833C29.0688 31.828 29.19 33.1419 29.7242 34.3086C30.2585 35.4753 31.1739 36.4254 32.32 37.0026C33.4661 37.5797 34.7745 37.7496 36.03 37.4842C37.2854 37.2187 38.4132 36.5339 39.2276 35.5422C40.042 34.5506 40.4946 33.3112 40.5109 32.0281C40.5271 30.745 40.1062 29.4946 39.3172 28.4825C38.5283 27.4705 37.4183 26.7572 36.17 26.46L36.16 26.48Z" fill="#333333"/>
</g>
<defs>
<clipPath id="clip0_6_2">
<rect width="110.95" height="122.88" fill="white"/>
</clipPath>
</defs>
</svg>
